<svg xmlns="http://www.w3.org/2000/svg" width="17.750" height="16.750" viewBox="0 0 17.750 16.750" fill="none">
  <path d="M 1 14.75 C 1.552 14.75 2 15.198 2 15.75 C 2 16.302 1.552 16.75 1 16.75 C 0.448 16.75 0 16.302 0 15.75 C 0 15.198 0.448 14.75 1 14.75 Z" fill="currentColor" fill-rule="evenodd"></path>
  <path d="M 15 15 C 15.414 15 15.75 15.336 15.75 15.75 C 15.75 16.164 15.414 16.5 15 16.5 L 5 16.5 C 4.586 16.5 4.25 16.164 4.25 15.75 C 4.25 15.336 4.586 15 5 15 L 15 15 Z" fill="currentColor" fill-rule="nonzero"></path>
  <path d="M 1 9.75 C 1.552 9.75 2 10.198 2 10.75 C 2 11.302 1.552 11.75 1 11.75 C 0.448 11.75 0 11.302 0 10.75 C 0 10.198 0.448 9.75 1 9.75 Z" fill="currentColor" fill-rule="evenodd"></path>
  <path d="M 15 10 C 15.414 10 15.75 10.336 15.75 10.75 C 15.75 11.164 15.414 11.5 15 11.5 L 5 11.5 C 4.586 11.5 4.25 11.164 4.25 10.75 C 4.25 10.336 4.586 10 5 10 L 15 10 Z" fill="currentColor" fill-rule="nonzero"></path>
  <path d="M 14 0 C 14.284 0 14.544 0.161 14.671 0.415 C 15.265 1.603 16.147 2.485 17.335 3.079 C 17.589 3.206 17.75 3.466 17.75 3.75 C 17.75 4.034 17.589 4.294 17.335 4.421 C 16.147 5.015 15.265 5.897 14.671 7.085 C 14.544 7.339 14.284 7.5 14 7.5 C 13.716 7.5 13.456 7.339 13.329 7.085 C 12.735 5.897 11.853 5.015 10.665 4.421 C 10.411 4.294 10.25 4.034 10.25 3.75 C 10.25 3.466 10.411 3.206 10.665 3.079 C 11.853 2.485 12.735 1.603 13.329 0.415 C 13.456 0.161 13.716 0 14 0 Z M 14 2.187 C 13.56 2.789 13.039 3.31 12.437 3.75 C 13.038 4.19 13.56 4.711 14 5.313 C 14.44 4.711 14.961 4.19 15.563 3.75 C 14.961 3.31 14.44 2.788 14 2.187 Z" fill="currentColor" fill-rule="evenodd"></path>
  <path d="M 1 4.75 C 1.552 4.75 2 5.198 2 5.75 C 2 6.302 1.552 6.75 1 6.75 C 0.448 6.75 0 6.302 0 5.75 C 0 5.198 0.448 4.75 1 4.75 Z" fill="currentColor" fill-rule="evenodd"></path>
  <path d="M 10 5 C 10.414 5 10.75 5.336 10.75 5.75 C 10.75 6.164 10.414 6.5 10 6.5 L 5 6.5 C 4.586 6.5 4.25 6.164 4.25 5.75 C 4.25 5.336 4.586 5 5 5 L 10 5 Z" fill="currentColor" fill-rule="nonzero"></path>
</svg>